# xmcd
#
# Track frame offsets:
#	150
#	9725
#	20746
#	31756
#	43191
#	51811
#	61967
#	71996
#	81607
#	94276
#	106539
#
# Disc length: 1568 seconds
#
# Revision: 0
# Processed by: cddbd v1.5.2PL0 Copyright (c) Steve Scherf et al.
# Submitted via: EasyCDDAExtractor 15.2.5.1
#
DISCID=94061e0b
DTITLE=mr. gasser and the weirdos - surfink!
DYEAR=1900
DGENRE=
TTITLE0=surfink
TTITLE1=well, i'm goin'
TTITLE2=surfer ghoul
TTITLE3=doin' the surfink
TTITLE4=little fink surfs again
TTITLE5=ratfink high
TTITLE6=phantom surfer
TTITLE7=there's a dog-gone ding in my ding-dong board
TTITLE8=big bad surfink
TTITLE9=surfink blues
TTITLE10=finksville, u.s.a.
EXTD=
EXTT0=
EXTT1=
EXTT2=
EXTT3=
EXTT4=
EXTT5=
EXTT6=
EXTT7=
EXTT8=
EXTT9=
EXTT10=
PLAYORDER=
